<?xml version="1.0" encoding="UTF-8" standalone="no" ?>
<!DOCTYPE svg PUBLIC "-//W3C//DTD SVG 1.1//EN" "http://www.w3.org/Graphics/SVG/1.1/DTD/svg11.dtd">
<svg xmlns="http://www.w3.org/2000/svg" xmlns:xlink="http://www.w3.org/1999/xlink" version="1.1" width="1280" height="1024" viewBox="0 0 1280 1024" xml:space="preserve">
<desc>Created with Fabric.js 5.3.0</desc>
<defs>
</defs>
<g transform="matrix(1 0 0 1 640 512)" id="background-logo"  >
<rect style="stroke: none; stroke-width: 0; stroke-dasharray: none; stroke-linecap: butt; stroke-dashoffset: 0; stroke-linejoin: miter; stroke-miterlimit: 4; fill: rgb(234,117,129); fill-rule: nonzero; opacity: 1;"  paint-order="stroke"  x="-640" y="-512" rx="0" ry="0" width="1280" height="1024" />
</g>
<g transform="matrix(1.9211538461538462 0 0 1.9211538461538462 637.7785939851375 502.4590611661654)" id="text-logo"  >
<g style=""  paint-order="stroke"   >
		<g transform="matrix(1 0 0 1 0 0)" id="text-logo-path-0"  >
<filter id="SVGID_79668" y="-22.967225479625814%" height="145.93445095925162%" x="-29.372851225492813%" width="158.74570245098562%" >
	<feGaussianBlur in="SourceAlpha" stdDeviation="0"></feGaussianBlur>
	<feOffset dx="12.300929948336767" dy="3.075232487084192" result="oBlur" ></feOffset>
	<feFlood flood-color="rgb(255,70,163)" flood-opacity="1"/>
	<feComposite in2="oBlur" operator="in" />
	<feMerge>
		<feMergeNode></feMergeNode>
		<feMergeNode in="SourceGraphic"></feMergeNode>
	</feMerge>
</filter>
<path style="stroke: rgb(0,0,0); stroke-width: 12.300929948336766; stroke-dasharray: none; stroke-linecap: butt; stroke-dashoffset: 0; stroke-linejoin: miter; stroke-miterlimit: 4; fill: rgb(255,255,255); fill-rule: nonzero; opacity: 1;filter: url(#SVGID_79668);"  paint-order="stroke"  transform=" translate(-67.63999999999999, 50.37)" d="M 30.35 1.45 L 30.35 1.45 Q 22.55 1.45 16.12 -2.53 Q 9.68 -6.5 5.85 -13.08 Q 2.02 -19.66 2.02 -27.61 L 2.02 -27.61 L 2.02 -34.26 Q 2.02 -34.98 2.75 -34.98 L 2.75 -34.98 L 18.93 -34.98 Q 19.51 -34.98 19.51 -34.26 L 19.51 -34.26 L 19.51 -27.61 Q 19.51 -22.84 22.69 -19.44 Q 25.87 -16.04 30.35 -16.04 L 30.35 -16.04 Q 34.83 -16.04 38.01 -19.51 Q 41.19 -22.98 41.19 -27.61 L 41.19 -27.61 Q 41.19 -32.95 34.26 -36.86 L 34.26 -36.86 Q 31.94 -38.16 27.03 -40.9 Q 22.11 -43.65 17.78 -46.11 L 17.78 -46.11 Q 9.83 -50.73 6 -57.74 Q 2.17 -64.75 2.17 -73.57 L 2.17 -73.57 Q 2.17 -81.66 6.07 -88.09 Q 9.97 -94.53 16.4 -98.28 Q 22.84 -102.04 30.35 -102.04 L 30.35 -102.04 Q 38.01 -102.04 44.44 -98.21 Q 50.88 -94.38 54.71 -87.95 Q 58.54 -81.52 58.54 -73.57 L 58.54 -73.57 L 58.54 -61.72 Q 58.54 -61.14 57.96 -61.14 L 57.96 -61.14 L 41.77 -61.14 Q 41.19 -61.14 41.19 -61.72 L 41.19 -61.72 L 41.05 -73.57 Q 41.05 -78.63 37.87 -81.81 Q 34.69 -84.99 30.35 -84.99 L 30.35 -84.99 Q 25.87 -84.99 22.69 -81.59 Q 19.51 -78.19 19.51 -73.57 L 19.51 -73.57 Q 19.51 -68.8 21.54 -65.62 Q 23.56 -62.44 28.91 -59.55 L 28.91 -59.55 Q 29.63 -59.12 31.73 -58.03 Q 33.82 -56.95 36.28 -55.57 Q 38.74 -54.2 40.69 -53.19 Q 42.64 -52.18 43.07 -51.89 L 43.07 -51.89 Q 50.3 -47.84 54.49 -41.99 Q 58.68 -36.13 58.68 -27.61 L 58.68 -27.61 Q 58.68 -19.37 54.85 -12.79 Q 51.02 -6.22 44.59 -2.38 Q 38.16 1.45 30.35 1.45 Z M 104.93 1.45 L 104.93 1.45 Q 97.13 1.45 90.77 -2.46 Q 84.41 -6.36 80.58 -12.94 Q 76.75 -19.51 76.75 -27.61 L 76.75 -27.61 L 76.75 -73.42 Q 76.75 -81.23 80.58 -87.81 Q 84.41 -94.38 90.84 -98.28 Q 97.27 -102.19 104.93 -102.19 L 104.93 -102.19 Q 112.88 -102.19 119.31 -98.36 Q 125.75 -94.53 129.5 -88.02 Q 133.26 -81.52 133.26 -73.42 L 133.26 -73.42 L 133.26 -66.78 Q 133.26 -66.2 132.54 -66.2 L 132.54 -66.2 L 116.35 -66.2 Q 115.77 -66.2 115.77 -66.78 L 115.77 -66.78 L 115.77 -72.27 Q 115.77 -77.76 112.67 -81.37 Q 109.56 -84.99 104.93 -84.99 L 104.93 -84.99 Q 100.74 -84.99 97.49 -81.52 Q 94.24 -78.05 94.24 -73.42 L 94.24 -73.42 L 94.24 -27.61 Q 94.24 -22.84 97.42 -19.44 Q 100.6 -16.04 104.93 -16.04 L 104.93 -16.04 Q 109.56 -16.04 112.67 -19.37 Q 115.77 -22.69 115.77 -27.61 L 115.77 -27.61 L 115.77 -34.69 L 105.66 -34.69 Q 104.93 -34.69 104.93 -35.41 L 104.93 -35.41 L 104.93 -51.6 Q 104.93 -52.32 105.66 -52.32 L 105.66 -52.32 L 132.68 -52.32 Q 133.26 -52.32 133.26 -51.6 L 133.26 -51.6 L 133.26 -27.61 Q 133.26 -19.51 129.43 -12.94 Q 125.6 -6.36 119.24 -2.46 Q 112.88 1.45 104.93 1.45 Z" stroke-linecap="round" />
</g>
</g>
</g>
</svg>